<svg class="icon" viewBox="0 0 1024 1024" xmlns="http://www.w3.org/2000/svg" width="200" height="200"><path d="M344.408 453.627c-29.199-5.8-56.397 17.8-56.397 47.598V602.02c0 20.399 14.199 36.798 33.398 43.998 36.398 13.6 62.597 48.798 62.597 89.996 0 52.997-42.998 95.995-95.995 95.995s-95.996-42.998-95.996-95.995V240.037c0-26.599-21.399-47.998-47.998-47.998H48.022c-26.599 0-47.998 21.4-47.998 47.998v495.977c0 178.991 164.192 320.384 349.984 281.386 108.795-22.799 196.59-110.794 219.39-219.39 34.798-165.791-73.997-314.384-224.99-344.383zM418.004.048c-18.399-1-33.998 13.6-33.998 31.999v63.197c0 17 13.2 30.999 29.999 31.798 258.787 14 466.778 223.99 481.777 482.978 1 16.799 15 29.998 31.798 29.998h64.197c18.4 0 32.999-15.6 31.999-33.998-17-326.385-279.387-588.772-605.772-605.972zm.6 191.991c-18.599-1.4-34.598 13.4-34.598 32.199v64.197c0 16.799 13 30.598 29.599 31.798 153.592 12.6 275.987 136.394 289.786 290.387 1.6 16.599 15.2 29.398 31.798 29.398h64.397c18.6 0 33.599-16 32.199-34.598-16.8-220.19-192.991-396.381-413.18-413.38z"/></svg>