<svg class="icon" viewBox="0 0 1024 1024" xmlns="http://www.w3.org/2000/svg" width="200" height="200"><path d="M512.005 480v192h-10.24c-25.6 64-42.56 117.76-75.84 164.8-24 33.6-56.96 55.68-94.4 58.88-120.32 9.6-265.6-181.12-146.56-292.8 20.48-19.2 44.16-33.28 67.52-47.36-20.8-11.2-45.12-4.16-67.84.64-22.72 4.8-49.28 5.44-64.64-14.4-13.76-17.28-13.12-43.84-13.12-67.2-.64-53.44-10.56-106.24-27.2-156.16-11.84-35.2-34.56-67.52-44.48-102.72-4.8-16.64-4.8-36.48 3.52-50.88 8.64-14.72 24.96-22.4 40.64-22.4 15.36 0 30.4 5.12 45.12 11.52 133.12 59.52 250.88 152.64 334.4 294.72 11.2 19.2 31.04 31.36 53.12 31.36z" fill="#E0EBFE"/><path d="M137.35 124.704c-14.913-6.624-35.009-14.272-58.08-14.272-28.32.032-54.465 14.72-68.16 38.368-11.905 20.48-14.369 47.936-6.753 75.296 6.08 21.984 16 41.76 25.536 60.896 7.52 15.104 14.656 29.376 19.424 43.68 16.512 49.376 25.056 98.56 25.408 146.048v4.192c.16 25.664.32 57.6 19.968 82.592 9.632 12.32 27.264 26.784 57.472 29.056-45.344 49.952-56 116.416-28.992 184.672C157.637 862.336 243.365 928 322.565 928c3.84 0 7.68-.16 11.52-.48 45.344-3.68 87.136-29.344 117.728-72.224 26.496-37.184 43.328-78.144 60.16-121.44 16.832 43.296 33.664 84.256 60.16 121.44 29.92 41.984 71.744 67.2 117.696 70.912 3.84.32 7.712.48 11.584.48h.032c79.264 0 165.024-65.536 199.424-152.48 26.88-67.84 16.32-133.952-28.576-183.808 29.952-2.336 47.424-16.704 56.96-28.928 19.648-24.992 19.84-56.896 19.968-82.56l.032-4.16c.352-47.456 8.896-96.608 25.376-145.984 4.8-14.272 11.936-28.512 19.456-43.584 9.536-19.136 19.424-38.88 25.536-60.864 7.616-27.264 5.12-54.624-6.72-75.04-13.6-23.36-39.68-37.888-68.288-37.92-18.848 0-37.824 4.384-57.984 13.344-132.64 59.04-239.264 145.984-317.76 258.848 5.12-27.36 7.104-49.472 7.104-50.08 0-16.128-6.016-30.72-15.648-42.08C561.701 199.584 638.245 128 736.005 128a16 16 0 1 0 0-32c-108.544 0-195.104 75.36-206.528 175.264a62.208 62.208 0 0 0-17.472-2.784c-6.048 0-11.776 1.12-17.312 2.72C483.461 171.36 396.773 96 288.005 96a16 16 0 1 0 0 32c97.92 0 174.592 71.552 175.776 163.2a64.992 64.992 0 0 0-15.776 42.272c0 .608 1.952 22.72 7.072 50.048-78.432-112.8-185.088-199.776-317.728-258.816zM512.004 300.48c17.632 0 32 14.816 32 32.992 0 25.152-13.92 87.2-26.72 112.96-3.52.608-7.04.64-10.56 0-12.8-25.76-26.72-87.808-26.72-112.96 0-18.176 14.368-32.96 32-32.96zm.032 211.52c32.704 0 63.584-18.016 80.64-47.04 73.536-125.184 181.216-220 320-281.76 11.84-5.28 22.272-7.84 32-7.84 4.32 0 10.304 1.6 12.896 6.048 3.072 5.28 3.232 15.68.416 25.76-4.48 16.032-12.544 32.224-21.12 49.376-8.192 16.416-16.672 33.376-22.88 51.936-18.656 55.808-28.288 111.584-28.704 165.76v4.352c-.128 16.672-.224 35.584-6.336 43.392-1.024 1.28-3.712 4.736-15.168 4.736-5.12 0-11.104-.704-17.888-2.144l-6.976-1.504c-25.28-5.568-58.88-9.024-82.88 4.224a32 32 0 0 0-.864 55.52l2.88 1.728c21.664 12.864 42.112 25.024 59.264 41.088 44.32 41.6 37.568 90.976 24.064 125.024-24.448 61.76-87.2 112.032-139.904 112.032-2.144 0-4.288-.064-6.4-.256-34.4-2.784-57.472-25.6-70.784-44.288-24.16-33.92-39.392-73.28-57.024-118.848-4.928-12.64-9.984-25.728-15.456-39.264A32 32 0 0 0 522.15 640h-20.288a32 32 0 0 0-29.664 20c-5.472 13.568-10.56 26.656-15.456 39.296-17.6 45.568-32.864 84.928-57.024 118.848-19.456 27.264-44.576 43.456-70.752 45.6-54.304 4.736-120.8-47.648-146.304-112.064-13.504-34.24-20.352-83.712 24.032-125.408 18.08-16.928 39.488-29.664 62.144-43.136a32 32 0 0 0-.896-55.52 84.96 84.96 0 0 0-41.6-10.176c-14.976 0-29.216 3.136-41.792 5.888l-6.464 1.408a87.584 87.584 0 0 1-17.664 2.112c-11.584 0-14.336-3.488-15.36-4.8-6.08-7.808-6.24-27.584-6.304-43.488l-.032-4.32c-.416-54.272-10.08-110.08-28.704-165.856-6.208-18.56-14.688-35.52-22.88-51.968-8.576-17.184-16.64-33.408-21.12-49.472-3.296-11.776-2.144-21.536.448-26.016 2.784-4.8 8.64-6.496 12.896-6.496 8.512 0 18.368 2.72 31.968 8.768 138.784 61.76 246.464 156.576 320 281.792C448.325 493.984 479.237 512 512.005 512z" fill="#5465CF"/></svg>